<?xml version="1.0" encoding="UTF-8" standalone="no"?>
<!-- Created with Inkscape (http://www.inkscape.org/) -->

<svg
   width="1920"
   height="1080"
   viewBox="0 0 508 285.75"
   version="1.1"
   id="svg5"
   inkscape:version="1.1 (c4e8f9ed74, 2021-05-24)"
   sodipodi:docname="Tenacity_Icon_Sketches.svg"
   xmlns:inkscape="http://www.inkscape.org/namespaces/inkscape"
   xmlns:sodipodi="http://sodipodi.sourceforge.net/DTD/sodipodi-0.dtd"
   xmlns="http://www.w3.org/2000/svg"
   xmlns:svg="http://www.w3.org/2000/svg">
  <sodipodi:namedview
     id="namedview7"
     pagecolor="#ffffff"
     bordercolor="#666666"
     borderopacity="1.0"
     inkscape:pageshadow="2"
     inkscape:pageopacity="0.0"
     inkscape:pagecheckerboard="0"
     inkscape:document-units="mm"
     showgrid="false"
     units="px"
     inkscape:zoom="0.35355339"
     inkscape:cx="712.76363"
     inkscape:cy="513.35952"
     inkscape:window-width="1720"
     inkscape:window-height="930"
     inkscape:window-x="151"
     inkscape:window-y="107"
     inkscape:window-maximized="0"
     inkscape:current-layer="layer1"
     showguides="true"
     inkscape:guide-bbox="true" />
  <defs
     id="defs2">
    <inkscape:path-effect
       effect="fillet_chamfer"
       id="path-effect21496"
       is_visible="true"
       lpeversion="1"
       satellites_param="F,0,0,1,0,1.5875,0,1 @ F,0,0,1,0,1.5875,0,1 @ F,0,0,1,0,1.5875,0,1 @ F,0,0,1,0,1.5875,0,1 @ F,0,0,1,0,1.5875,0,1 @ F,0,0,1,0,1.5875,0,1 @ F,0,0,1,0,1.5875,0,1 @ F,0,0,1,0,1.5875,0,1"
       unit="px"
       method="auto"
       mode="F"
       radius="6"
       chamfer_steps="1"
       flexible="false"
       use_knot_distance="true"
       apply_no_radius="true"
       apply_with_radius="true"
       only_selected="false"
       hide_knots="false" />
  </defs>
  <g
     inkscape:label="Layer 1"
     inkscape:groupmode="layer"
     id="layer1">
    <rect
       style="opacity:0.996;fill:#000000;fill-opacity:0.996078;stroke:none;stroke-width:0.115253;stroke-linecap:round;stroke-linejoin:round;stroke-dasharray:0.345757, 0.345757"
       id="rect16975"
       width="57.190475"
       height="57.190475"
       x="35.422279"
       y="65.527435"
       ry="2.7503922" />
    <path
       id="path16973"
       style="fill:#ffffff;fill-opacity:0.978065;stroke-width:0.0695215"
       d="m 48.583742,80.07922 v 7.997825 l 1.32e-4,4.093609 v 3.90409 l -1.32e-4,4.093736 v 7.9977 h 0.556173 0.556171 l 0.01045,-7.89069 c 0.0022,-1.66794 0.0049,-3.015257 0.0073,-4.303147 0.0067,-0.0076 0.01077,-0.01579 0.01007,-0.02495 -0.0016,-0.01832 -0.0037,-0.922083 -0.006,-1.82481 0.0022,-0.9026 0.0045,-1.806463 0.006,-1.824778 9.47e-4,-0.0088 -0.0033,-0.01705 -0.01007,-0.02463 -0.0022,-1.287859 -0.0051,-2.635302 -0.0073,-4.303242 l -0.01045,-7.890719 H 49.139915 Z M 81.3979,82.025818 v 7.021684 3.128741 3.892912 3.12874 7.021685 h 0.590932 0.590932 v -7.021685 -3.12874 -3.892912 -3.128741 -7.021684 h -0.590932 z m -7.786411,0.48665 v 6.778327 2.885448 3.892912 2.885416 6.778359 h 0.556173 0.556174 v -6.778359 -2.885416 -3.892912 -2.885448 -6.778327 h -0.556174 z m -14.043346,1.251388 v 6.15265 2.259737 3.892912 2.259737 6.152648 h 0.556173 0.556171 v -6.152648 -2.259737 -3.892912 -2.259737 -6.15265 H 60.124316 Z M 47.05427,84.389535 v 5.839826 1.946882 3.892912 1.946882 5.839823 h 0.556173 0.55617 v -5.839823 -1.946882 -3.892912 -1.946882 -5.839826 h -0.55617 z m 10.914876,0 v 5.839826 1.946882 3.892912 1.946882 5.839823 h 0.556174 0.556173 V 98.016037 96.069155 92.176243 90.229361 84.389535 H 58.52532 Z m 4.729092,0.34762 -0.01819,5.666 -0.0057,1.773088 h -0.01247 l 0.0063,1.946472 -0.0063,1.94644 h 0.01247 l 0.0057,1.773087 0.01819,5.665968 h 0.555359 0.555356 v -5.665968 -1.773087 -3.892912 -1.773088 -5.666 h -0.555356 z m -12.5155,0.347589 v 5.492205 1.599294 3.892912 1.599261 5.492204 h 0.556171 0.55617 v -5.492204 -1.599261 -3.892912 -1.599294 -5.492205 h -0.55617 z m 4.657939,0 v 5.492205 1.599294 3.892912 1.599261 5.492204 h 0.573556 0.57355 l -0.01819,-5.492204 -0.01184,-3.545701 0.01184,-3.545766 0.01819,-5.492205 h -0.57355 z m 25.027747,0.83427 v 5.075086 1.182143 3.892912 1.182142 5.075053 h 0.556173 0.556174 V 97.251297 96.069155 92.176243 90.9941 85.919014 h -0.556174 z m -15.64234,0.764739 v 4.692701 0.799789 3.892912 0.799757 4.692728 h 0.556171 0.556173 v -4.692728 -0.799757 -3.892912 -0.799789 -4.692701 h -0.556173 z m 6.256936,0 v 4.692701 0.799789 3.892912 0.799757 4.692728 h 0.556173 0.556174 v -4.692728 -0.799757 -3.892912 -0.799789 -4.692701 h -0.556174 z m -9.385405,0.347621 v 4.518906 0.625963 3.892912 0.625962 4.518903 h 0.556174 0.55617 V 96.695117 96.069155 92.176243 91.55028 87.031374 h -0.55617 z m 7.856065,0 -0.0058,4.327713 c -6.31e-4,0.312445 -0.0025,0.520215 -0.0034,0.817156 H 68.8793 l 0.03151,0.191193 c 0.0096,0.05845 0.01838,0.776233 0.02539,1.755279 -0.007,0.979014 -0.01579,1.6968 -0.02539,1.755278 l -0.03151,0.191162 h 0.06518 c 6.32e-4,0.29694 0.0028,0.504711 0.0034,0.817155 l 0.0058,4.32771 h 0.556173 0.556171 V 96.695117 96.069155 92.176243 91.55028 87.031374 h -0.556171 z m 7.786278,0.417119 v 4.310315 0.417435 3.892912 0.417403 4.310342 h 0.55617 0.556174 v -4.310342 -0.417403 -3.892912 -0.417435 -4.310315 h -0.556174 z m -10.949639,0.83427 0.01535,3.841064 c 0.0043,1.084636 0.0058,1.288775 0.009,1.998888 -0.0032,0.710049 -0.0046,0.914188 -0.009,1.998856 l -0.01535,3.841064 h 0.573682 0.573557 v -3.893196 -2.84e-4 -3.892912 0 -3.893228 h -0.573557 z m -14.078108,0.272501 v 3.621105 0.135777 3.621105 0.135904 3.621105 l 0.559704,-0.02021 0.559836,-0.01989 0.01317,-3.580783 h 0.0144 l -0.0072,-1.946314 0.0072,-1.946503 h -0.0144 l -0.01317,-3.580752 -0.559836,-0.02021 z m 20.300284,0.07509 v 3.545892 0.17351 3.545891 0.173511 3.545891 h 0.59093 0.590935 v -3.545894 -0.173511 -3.719401 -3.545892 h -0.590935 z m 6.256935,0 v 3.545892 0.17351 3.545891 0.173511 3.545891 h 0.590933 0.590932 v -3.545894 -0.173511 -3.719401 -3.545892 h -0.590932 z m -3.130644,0.27809 0.0035,3.580373 0.0016,1.633901 -0.0016,1.633869 -0.0035,3.580341 h 0.592025 0.592015 v -3.26777 -0.312571 -3.26777 -0.312571 -3.267802 h -0.592015 z m -7.784236,0.208591 v 3.059211 0.416835 3.05921 0.416867 3.059242 h 0.556174 0.556174 v -3.059242 -0.416867 -3.476045 -3.059211 h -0.556174 z m -14.043346,1.042798 v 2.016413 0.938249 2.016381 0.938282 2.016381 h 0.556174 0.55617 v -2.016381 -0.938282 -2.95463 -2.016413 h -0.55617 z m -7.855931,0.06953 v 1.946882 0.973015 1.946882 0.973015 1.946882 h 0.548838 c 0.430792,0 0.55762,-0.02305 0.589982,-0.107422 0.01711,-0.04459 0.0312,-0.804967 0.03666,-1.83946 h 2.65e-4 l 1.33e-4,-0.156712 c 0.0013,-0.294604 0.0022,-0.599123 0.0022,-0.923725 l -9.47e-4,-0.866003 9.47e-4,-0.866067 c 2.4e-4,-0.32457 -9.47e-4,-0.629089 -0.0022,-0.923725 l -1.33e-4,-0.15668 h -2.65e-4 c -0.0055,-1.034525 -0.01955,-1.794875 -0.03666,-1.839492 -0.03236,-0.08434 -0.15919,-0.10739 -0.589982,-0.10739 z m 10.984401,0 v 1.946882 0.973015 1.946882 0.973015 1.946882 h 0.556173 0.556171 v -1.946882 -0.973015 -2.919897 -1.946882 h -0.556171 z" />
    <rect
       style="opacity:0.996;fill:#000000;fill-opacity:0.996078;stroke:none;stroke-width:0.115253;stroke-linecap:round;stroke-linejoin:round;stroke-dasharray:0.345757, 0.345757"
       id="rect17648"
       width="57.190475"
       height="57.190475"
       x="124.76329"
       y="65.541893"
       ry="2.7503922" />
    <path
       id="path17650"
       style="font-weight:bold;font-size:122.155px;line-height:1.25;font-family:Inter;-inkscape-font-specification:'Inter Bold';fill:#f8f9fa;fill-opacity:1;stroke-width:1.24907"
       d="m 137.44234,76.464177 1.12801,6.756351 h 10.7383 l 0.0398,30.100942 h 8.02029 l 0.0398,-30.100942 h 10.74755 l 1.1186,-6.756351 z"
       sodipodi:nodetypes="ccccccccc" />
    <rect
       style="opacity:0.996;fill:#000000;fill-opacity:0.996078;stroke:none;stroke-width:0.115253;stroke-linecap:round;stroke-linejoin:round;stroke-dasharray:0.345757, 0.345757"
       id="rect19005"
       width="57.190475"
       height="57.190475"
       x="213.41963"
       y="65.541893"
       ry="2.7503922" />
    <path
       id="path19007"
       style="font-weight:bold;font-size:122.155px;line-height:1.25;font-family:Inter;-inkscape-font-specification:'Inter Bold';fill:#f8f9fa;fill-opacity:1;stroke-width:1.24907"
       d="m 226.09865,76.464205 1.12803,6.756365 h 10.73829 l 0.007,5.251747 8.07987,4.664969 0.0131,-9.916716 h 10.74758 l 1.11856,-6.756365 z m 19.94504,22.796652 -8.05131,4.648493 0.0124,9.41201 h 8.02031 z" />
    <path
       sodipodi:type="star"
       style="opacity:0.996;fill:#ffffff;fill-opacity:0.978065;stroke:none;stroke-width:1.37953;stroke-linecap:round;stroke-linejoin:round;stroke-dasharray:4.13858, 4.13858"
       id="path19031"
       inkscape:flatsided="true"
       sodipodi:sides="3"
       sodipodi:cx="2845.8804"
       sodipodi:cy="6806.8882"
       sodipodi:r1="110.00533"
       sodipodi:r2="55.002663"
       sodipodi:arg1="0.52359878"
       sodipodi:arg2="1.5707963"
       inkscape:rounded="0"
       inkscape:randomized="0"
       transform="matrix(0,0.0776983,-0.0776983,0,768.58561,-124.92331)"
       inkscape:transform-center-x="-6.7672113"
       inkscape:transform-center-y="3.2733803e-06"
       d="m 2941.1478,6861.8909 -190.5348,-1e-4 95.2674,-165.0079 z" />
    <rect
       style="opacity:0.996;fill:#000000;fill-opacity:0.996078;stroke:none;stroke-width:0.115253;stroke-linecap:round;stroke-linejoin:round;stroke-dasharray:0.345757, 0.345757"
       id="rect19578"
       width="57.190475"
       height="57.190475"
       x="293.06335"
       y="65.541893"
       ry="2.7503922" />
    <path
       id="path19580"
       style="font-weight:bold;font-size:122.155px;line-height:1.25;font-family:Inter;-inkscape-font-specification:'Inter Bold';fill:#f8f9fa;fill-opacity:1;stroke-width:1.24907"
       d="m 305.74236,76.464205 1.12802,6.756365 h 10.73829 l 0.0145,10.957593 0.008,6.481257 0.0168,12.66194 h 8.02031 l 0.0148,-11.27333 0.0122,-9.25814 0.0127,-9.56932 h 10.74758 l 1.11856,-6.756365 z m 15.81347,9.24591 h 0.76659 l 0.0145,6.578832 0.0101,3.587692 0.0139,0.02056 -0.008,1.521427 0.008,1.521436 -0.0139,0.02105 -0.0101,3.587868 -0.0145,6.57866 h -0.76659 -0.76658 v -6.66792 -3.4131 -3.25515 -3.412942 -6.668082 z m -2.87462,3.593891 h 0.76659 0.76642 v 4.868936 1.623251 3.245685 1.623252 4.86878 h -0.76642 -0.76659 v -4.86878 -1.623252 -3.245685 -1.623251 z m 4.31186,0.579759 h 0.76659 0.76659 v 4.578977 1.333451 3.245685 1.333292 4.57914 h -0.76659 -0.76659 v -4.57914 -1.333292 -3.245685 -1.333451 z"
       sodipodi:nodetypes="ccccccccccccccccccccccccccccccccccccccccccccccccccccccccccccc" />
    <path
       id="path19882"
       style="fill:#f8f9fa;fill-opacity:1;stroke-width:0.0530085"
       d="m 312.56841,89.68199 -0.54532,2.22e-4 v 4.742843 l 10e-5,2.427564 v 2.315374 l -10e-5,2.427687 v 4.74272 h 0.54532 0.54529 l 0.0107,-4.67925 c 0,-0.98918 0,-1.788275 0.0111,-2.552036 0.0107,0 0.0107,-0.01074 0.0107,-0.01516 0,-0.01105 0,-0.546834 -0.0107,-1.082205 0,-0.535182 0,-1.071311 0.0107,-1.08211 0,-0.01074 0,-0.01074 -0.0107,-0.01421 0,-0.763761 0,-1.562728 -0.0111,-2.55191 l -0.0107,-4.679344 z m -2.04467,2.556268 v 3.463131 1.154608 2.308617 1.154606 3.46301 h 0.54528 0.5451 v -3.46301 -1.154606 -2.308617 -1.154608 -3.463131 h -0.5451 z m 3.06688,0.412383 v 3.256876 0.94848 2.308617 0.948386 3.25697 h 0.54532 0.54528 v -3.25697 -0.948386 -2.308617 -0.94848 -3.256876 h -0.54528 z m 1.49958,2.057966 v 2.147517 0.08071 2.147516 0.08068 2.14742 l 0.54857,-0.012 0.54891,-0.012 0.0129,-2.123517 h 0.0142 l -0.0107,-1.154198 0.0107,-1.154387 h -0.0142 l -0.0129,-2.123519 -0.54891,-0.012 z m -6.13399,0.992782 v 1.154608 0.577052 1.154514 0.577051 1.154606 h 0.53799 c 0.4224,0 0.54671,-0.0142 0.57835,-0.0632 0.0164,-0.0262 0.0306,-0.477458 0.036,-1.090948 l 2.2e-4,-0.09268 c 0,-0.174742 0,-0.355325 0,-0.547812 v -0.513451 -0.513805 c 1.9e-4,-0.192361 0,-0.372975 0,-0.547812 l -2.2e-4,-0.09271 c 0,-0.613459 -0.0186,-1.064427 -0.036,-1.090825 -0.0316,-0.05014 -0.15595,-0.06432 -0.57835,-0.06432 z" />
    <path
       id="path3900"
       style="fill:#f8f9fa;fill-opacity:1;stroke-width:0.0530085"
       d="m 330.49348,89.883603 0.54532,2.21e-4 v 4.742844 l -10e-5,2.427563 v 2.315375 l 10e-5,2.427694 v 4.74271 h -0.54532 -0.54529 l -0.0107,-4.67925 c 0,-0.98918 0,-1.78827 -0.0111,-2.552033 -0.0107,0 -0.0107,-0.01074 -0.0107,-0.01516 0,-0.01105 0,-0.546834 0.0107,-1.082205 0,-0.535182 0,-1.071311 -0.0107,-1.08211 0,-0.01074 0,-0.01074 0.0107,-0.01421 0,-0.763761 0,-1.562729 0.0111,-2.55191 l 0.0107,-4.679344 z m 2.04467,2.556268 v 3.463131 1.154608 2.308617 1.154613 3.463 h -0.54528 -0.5451 v -3.463 -1.154613 -2.308617 -1.154608 -3.463131 h 0.5451 z m -3.06688,0.412383 v 3.256876 0.94848 2.308617 0.948383 3.25697 h -0.54532 -0.54528 v -3.25697 -0.948383 -2.308617 -0.94848 -3.256876 h 0.54528 z m -1.49958,2.057966 v 2.147516 0.08071 2.147516 0.08068 2.147418 l -0.54857,-0.012 -0.54891,-0.012 -0.0129,-2.123515 h -0.0142 l 0.0107,-1.154198 -0.0107,-1.154388 h 0.0142 l 0.0129,-2.123518 0.54891,-0.012 z m 6.13399,0.992782 v 1.154608 0.577052 1.154513 0.577052 1.154613 h -0.53799 c -0.42239,0 -0.54671,-0.0142 -0.57835,-0.0633 -0.0164,-0.0262 -0.0306,-0.477465 -0.036,-1.090955 l -2.2e-4,-0.09268 c 0,-0.174742 0,-0.355325 0,-0.547812 V 98.212685 97.69888 c -1.9e-4,-0.192361 0,-0.372976 0,-0.547812 l 2.2e-4,-0.09271 c 0,-0.613459 0.0186,-1.064427 0.036,-1.090825 0.0316,-0.05014 0.15596,-0.06432 0.57835,-0.06432 z" />
    <g
       aria-label="T"
       id="g23944"
       style="font-size:122.155px;line-height:1.25;font-family:Inter;-inkscape-font-specification:Inter;fill:#000000;fill-opacity:1;stroke-width:2.86301"
       transform="matrix(0.5193026,0,0,0.92026306,222.42264,183.4942)" />
    <path
       id="path48903"
       style="fill:#12b886;stroke:none;stroke-width:0.0197911px;stroke-linecap:butt;stroke-linejoin:miter;stroke-opacity:1"
       d="m 313.89584,187.39509 c -3.95852,0 -7.17619,3.05733 -7.43153,6.94909 0.005,0 0.006,-3e-4 0.01,-3e-4 h 4.23936 c 0.32578,0 0.58814,0.26232 0.58814,0.58813 0,0.32581 -0.26236,0.58809 -0.58814,0.58809 h -4.23936 c -0.01,0 -0.0179,-2.9e-4 -0.0271,-5.1e-4 v 1.36208 c 0.01,-3.7e-4 0.0179,-5.1e-4 0.0271,-5.1e-4 h 4.23936 c 0.32578,0 0.58814,0.26228 0.58814,0.58809 0,0.32581 -0.26236,0.58814 -0.58814,0.58814 h -4.23936 c -0.01,0 -0.0179,-3.1e-4 -0.0271,-5.2e-4 v 1.36209 c 0.01,-3.9e-4 0.0179,-5.2e-4 0.0271,-5.2e-4 h 4.23936 c 0.32578,0 0.58814,0.26228 0.58814,0.58809 0,0.32582 -0.26236,0.5881 -0.58814,0.5881 h -4.23936 c -0.01,0 -0.0179,-3.1e-4 -0.0271,-5.2e-4 v 0.76954 c 0,4.12643 3.32202,7.44842 7.44841,7.44842 0.52751,0 1.04163,-0.055 1.5376,-0.1583 0.28642,-2.5466 2.43928,-4.47222 5.00194,-4.47403 0.11764,3.1e-4 0.23544,0.005 0.35284,0.0129 0.35655,-0.87195 0.55609,-1.82603 0.55609,-2.82926 v -0.76954 c -0.01,3.7e-4 -0.0179,5.2e-4 -0.0273,5.2e-4 h -4.1816 c -0.32581,0 -0.58814,-0.26228 -0.58814,-0.58809 0,-0.32582 0.26233,-0.5881 0.58814,-0.5881 h 4.1816 c 0.01,0 0.0179,2.9e-4 0.0273,5.2e-4 v -1.36209 c -0.01,3.7e-4 -0.0179,5.2e-4 -0.0273,5.2e-4 h -4.1816 c -0.32581,0 -0.58814,-0.26233 -0.58814,-0.58814 0,-0.32581 0.26233,-0.58809 0.58814,-0.58809 h 4.1816 c 0.01,0 0.0179,3e-4 0.0273,5.1e-4 v -1.36208 c -0.01,3.7e-4 -0.0179,5.1e-4 -0.0273,5.1e-4 h -4.1816 c -0.32581,0 -0.58814,-0.26228 -0.58814,-0.58809 0,-0.32581 0.26233,-0.58812 0.58814,-0.58812 h 4.1816 c 0.005,0 0.006,2.2e-4 0.01,2.9e-4 -0.25529,-3.89176 -3.47298,-6.94909 -7.43154,-6.94909 z m 6.53953,18.34718 a 3.4736802,3.4736802 0 0 0 -3.47368,3.47367 3.4736802,3.4736802 0 0 0 3.47368,3.47372 3.4736802,3.4736802 0 0 0 3.47364,-3.47372 3.4736802,3.4736802 0 0 0 -3.47364,-3.47367 z m -10.21285,4.83138 v 6.82753 h -3.74514 c -1.31856,0 -1.3856,2.39991 -1.3856,2.39991 h 8.80406 8.80412 c 0,0 -0.067,-2.39991 -1.38562,-2.39991 h -3.74518 v -4.04461 c -0.76593,-0.53126 -1.3694,-1.26462 -1.74328,-2.11848 -0.49771,0.0788 -1.1259,0.13265 -1.93004,0.13265 -3.11693,0 -3.67332,-0.79713 -3.67332,-0.79713 z" />
    <path
       id="path55069"
       style="fill:#087f5b;stroke:none;stroke-width:0.135715px;stroke-linecap:butt;stroke-linejoin:miter;stroke-opacity:1"
       d="m 356.81518,214.79571 c 0.0171,4.06364 5.93578,8.01762 9.68139,1.52998 l 0.84532,-1.46424 0.84531,1.46424 c 3.74563,6.48764 9.6642,2.53366 9.68139,-1.52998 0.003,-0.66494 -0.15234,-1.33276 -0.50098,-1.95833 -2.47899,-4.44848 -6.41893,-1.72003 -6.41893,-1.72003 l -0.70586,-1.28028 5.16117,-8.93946 c 4.56255,-7.90258 1.3932,-13.46713 1.3932,-13.46713 l -9.4553,17.14629 -9.45529,-17.14629 c 0,0 -3.16933,5.56453 1.3932,13.46713 l 5.16117,8.93946 -0.70588,1.28028 c 0,0 -3.93993,-2.72845 -6.41892,1.72003 -0.34862,0.62557 -0.5038,1.29339 -0.50099,1.95833 z m 1.50137,0.21313 a 3.3842208,3.3842208 0 0 1 3.3844,-3.38442 3.3842208,3.3842208 0 0 1 3.38414,3.38442 3.3842208,3.3842208 0 0 1 -3.38414,3.38414 3.3842208,3.3842208 0 0 1 -3.3844,-3.38414 z m 11.28215,0 a 3.3842208,3.3842208 0 0 1 3.38414,-3.38442 3.3842208,3.3842208 0 0 1 3.3844,3.38442 3.3842208,3.3842208 0 0 1 -3.3844,3.38414 3.3842208,3.3842208 0 0 1 -3.38414,-3.38414 z" />
    <path
       id="path61580"
       style="fill:#087f5b;stroke:none;stroke-width:0.135715px;stroke-linecap:butt;stroke-linejoin:miter;stroke-opacity:1"
       d="m 51.39396,182.53564 c -0.899768,-0.003 -1.702664,0.62376 -1.892342,1.54057 L 47.25172,194.9507 c -0.216789,1.04779 0.452232,2.06599 1.500012,2.28277 l 14.629723,3.02657 c 1.047796,0.21675 2.065738,-0.45225 2.282511,-1.50005 l 2.249914,-10.87445 c 0.216756,-1.0478 -0.452249,-2.06574 -1.500029,-2.28253 L 51.784145,182.5762 c -0.131035,-0.0271 -0.261651,-0.0402 -0.390185,-0.0405 z m 20.775605,4.31798 c -0.899785,-0.003 -1.702923,0.62375 -1.892601,1.54058 l -2.249897,10.87447 c -0.216789,1.0478 0.452506,2.066 1.500286,2.28279 l 5.19349,1.07431 c -2.556039,-4.34085 -1.156223,-9.39538 -1.156223,-9.39538 l 12.394397,11.69777 c 0.937611,0.0491 0.284227,-0.90124 0.48057,-1.85018 l 2.249897,-10.87447 c 0.216773,-1.04778 -0.452232,-2.06574 -1.500028,-2.28251 l -14.629707,-3.02657 c -0.131035,-0.0271 -0.261634,-0.0403 -0.390184,-0.0408 z m 19.771799,2.13831 -3.558021,19.25464 -14.385065,-13.28395 c 0,0 -1.250351,6.28061 5.573879,12.33845 l 7.719609,6.85257 -0.265588,1.43774 c 0,0 -4.599975,-1.34489 -5.547639,3.65875 -0.133294,0.70363 -0.06939,1.38634 0.143138,2.01639 1.299571,3.85014 8.163273,5.7332 9.668933,-1.605 l 0.340094,-1.65642 1.264375,1.12258 c 5.602361,4.97318 9.969731,-0.64711 8.703031,-4.5083 -0.20752,-0.63176 -0.5654,-1.21666 -1.09367,-1.70017 -3.756721,-3.43825 -6.633634,0.39469 -6.633634,0.39469 l -1.074067,-0.99188 2.074694,-10.11187 c 1.834087,-8.93891 -2.930069,-13.21822 -2.930069,-13.21822 z m 8.692676,3.75047 c -0.899755,-0.003 -1.702925,0.62403 -1.892603,1.54084 l -2.249898,10.87449 c -0.216772,1.04778 0.452249,2.06574 1.500029,2.28249 l 14.629702,3.02685 c 1.0478,0.21675 2.06602,-0.45225 2.28277,-1.50005 l 2.24966,-10.87445 c 0.21677,-1.0478 -0.45225,-2.06601 -1.50003,-2.28279 l -14.62971,-3.02655 c -0.13103,-0.0271 -0.26137,-0.0403 -0.38992,-0.0408 z m -3.628785,20.23725 a 3.3842208,3.3842208 0 0 1 3.235415,2.31591 3.3842208,3.3842208 0 0 1 -2.142822,4.27956 3.3842208,3.3842208 0 0 1 -4.279536,-2.14256 3.3842208,3.3842208 0 0 1 2.142293,-4.27982 3.3842208,3.3842208 0 0 1 1.04465,-0.17309 z m -10.704836,3.56201 a 3.3842208,3.3842208 0 0 1 3.235161,2.31591 3.3842208,3.3842208 0 0 1 -2.142552,4.27955 3.3842208,3.3842208 0 0 1 -4.279811,-2.14257 3.3842208,3.3842208 0 0 1 2.142552,-4.27981 3.3842208,3.3842208 0 0 1 1.04465,-0.17308 z" />
    <g
       id="g4597"
       transform="translate(18.089096)">
      <path
         id="path61268"
         style="fill:#087f5b;stroke:none;stroke-width:0.135715px;stroke-linecap:butt;stroke-linejoin:miter;stroke-opacity:1"
         d="m 149.65545,227.72214 c 2.05242,3.50725 9.1558,3.96063 9.14355,-3.53065 l -0.003,-1.69071 1.46556,0.84301 c 6.49374,3.73505 9.63196,-2.65362 7.60926,-6.17812 -0.33118,-0.5766 -0.80009,-1.07672 -1.41539,-1.44316 -4.37536,-2.60587 -6.41613,1.73034 -6.41613,1.73034 l -1.25269,-0.75378 -0.0169,-10.32236 c -0.0145,-9.12511 -5.54721,-12.35044 -5.54721,-12.35044 l 0.41659,19.5761 -16.77817,-10.09407 c 0,0 0.0479,6.40363 7.95801,10.95329 l 8.94785,5.14661 0.0313,1.46165 c 0,0 -4.77696,-0.38515 -4.69127,4.70672 0.0113,0.71603 0.21265,1.37164 0.54848,1.94557 z m 1.40583,-0.56842 a 3.3842208,3.3842208 0 0 1 1.23123,-4.6252 3.3842208,3.3842208 0 0 1 4.62499,1.23136 3.3842208,3.3842208 0 0 1 -1.23115,4.62484 3.3842208,3.3842208 0 0 1 -4.62507,-1.231 z m 9.76142,-5.65702 a 3.3842208,3.3842208 0 0 1 1.23099,-4.62507 3.3842208,3.3842208 0 0 1 4.62519,1.23123 3.3842208,3.3842208 0 0 1 -1.23134,4.62497 3.3842208,3.3842208 0 0 1 -4.62484,-1.23113 z" />
      <path
         id="rect61140"
         style="opacity:0.996;fill:#087f5b;stroke-width:0.455314;stroke-linecap:round;stroke-linejoin:round;stroke-dasharray:0.455314, 0.455314"
         d="m 133.94296,196.11426 c -1.06997,0 -1.93156,0.86131 -1.93156,1.93128 v 11.10482 c 0,1.06998 0.86159,1.9313 1.93156,1.9313 h 5.30342 c -3.38248,-3.73297 -3.03563,-8.96637 -3.03563,-8.96637 l 14.50731,8.94411 c 0.9281,-0.142 0.0957,-0.94001 0.0957,-1.90904 v -11.10482 c 0,-1.06997 -0.86131,-1.93128 -1.9313,-1.93128 z"
         sodipodi:nodetypes="sssscccssss" />
      <path
         id="rect61977"
         style="opacity:0.996;fill:#087f5b;stroke-width:0.455314;stroke-linecap:round;stroke-linejoin:round;stroke-dasharray:0.455314, 0.455314"
         d="m 162.37166,196.1142 h 14.93955 c 1.06998,0 1.93137,0.86137 1.93137,1.93136 v 11.1048 c 0,1.06997 -0.86139,1.93136 -1.93137,1.93136 h -14.93955 c -1.06998,0 -1.93138,-0.86139 -1.93138,-1.93136 v -11.1048 c 0,-1.06999 0.8614,-1.93136 1.93138,-1.93136 z" />
    </g>
    <g
       id="g4601"
       transform="translate(7.354451)">
      <rect
         style="opacity:0.996;fill:#087f5b;fill-opacity:1;stroke:none;stroke-width:0.455314;stroke-linecap:round;stroke-linejoin:round;stroke-miterlimit:4;stroke-dasharray:0.455314, 0.455314;stroke-dashoffset:0;stroke-opacity:1"
         id="rect61266"
         width="18.802288"
         height="14.967531"
         x="222.88324"
         y="196.11418"
         ry="1.9313679" />
      <path
         id="rect61979"
         style="opacity:0.996;fill:#087f5b;stroke-width:0.455314;stroke-linecap:round;stroke-linejoin:round;stroke-dasharray:0.455314, 0.455314"
         d="m 247.96017,196.11426 c -1.06997,0 -1.9313,0.86133 -1.9313,1.9313 v 11.10482 c 0,1.06996 0.86133,1.93129 1.9313,1.93129 h 14.93958 c 1.06998,0 1.93155,-0.86133 1.93155,-1.93129 v -11.10482 c 0,-1.06997 -0.86157,-1.9313 -1.93155,-1.9313 z m 6.98828,3.75816 c 0.24347,-0.006 0.48164,0.1797 0.48164,0.46599 v 6.51913 c 0,0.416 -0.50355,0.62086 -0.79522,0.3292 l -1.72638,-1.72587 h -1.98033 c -0.25732,0 -0.46573,-0.20859 -0.46573,-0.46573 v -2.79435 c 0,-0.25731 0.20841,-0.46572 0.46573,-0.46572 h 1.98033 l 1.72638,-1.72613 c 0.091,-0.091 0.20293,-0.13362 0.31358,-0.13652 z m 2.47921,1.86265 c 0.0802,0 0.16025,0.0305 0.22133,0.0917 l 0.88587,0.8856 0.88558,-0.8856 c 0.12233,-0.12232 0.32044,-0.12232 0.44267,0 l 0.44293,0.44266 c 0.12233,0.12232 0.12233,0.32068 0,0.44294 l -0.8856,0.8856 0.8856,0.8856 c 0.12233,0.12216 0.12233,0.32068 0,0.44292 l -0.44293,0.44268 c -0.12216,0.12232 -0.32042,0.12232 -0.44267,0 l -0.88558,-0.8856 -0.8856,0.88532 c -0.12232,0.12232 -0.32042,0.12232 -0.44266,0 l -0.44294,-0.44266 c -0.12232,-0.12216 -0.12232,-0.32066 0,-0.44294 l 0.88533,-0.88532 -0.8856,-0.8856 c -0.12216,-0.12232 -0.12216,-0.32068 0,-0.44294 l 0.44293,-0.44266 c 0.0612,-0.0612 0.14121,-0.0917 0.22134,-0.0917 z" />
    </g>
    <g
       style="fill:#20c997;fill-opacity:1"
       id="g62195"
       transform="matrix(0.77476927,0,0,0.77476927,752.55853,393.41033)" />
    <title
       id="title4802">Trove</title>
    <text
       xml:space="preserve"
       style="font-size:10.5833px;line-height:1.25;font-family:Inter;-inkscape-font-specification:Inter;stroke-width:0.264583"
       x="31.782372"
       y="34.005695"
       id="text5961"><tspan
         sodipodi:role="line"
         id="tspan5959"
         style="font-style:normal;font-variant:normal;font-weight:500;font-stretch:normal;font-family:Inter;-inkscape-font-specification:'Inter Medium';stroke-width:0.264583"
         x="31.782372"
         y="34.005695">Logo Designs</tspan></text>
    <text
       xml:space="preserve"
       style="font-size:10.5833px;line-height:1.25;font-family:Inter;-inkscape-font-specification:Inter;stroke-width:0.264583"
       x="31.782372"
       y="167.48706"
       id="text8355"><tspan
         sodipodi:role="line"
         id="tspan8353"
         style="font-style:normal;font-variant:normal;font-weight:500;font-stretch:normal;font-family:Inter;-inkscape-font-specification:'Inter Medium';stroke-width:0.264583"
         x="31.782372"
         y="167.48706">Icon Designs</tspan></text>
  </g>
</svg>
